<svg width="18" height="24" viewBox="0 0 18 24" fill="none" xmlns="http://www.w3.org/2000/svg">
<path d="M15.2613 0.337524C15.8132 0.337524 16.3424 0.556743 16.7326 0.946953C17.1228 1.33716 17.3421 1.8664 17.3421 2.41825V19.064C17.3421 19.6159 17.1228 20.1451 16.7326 20.5353C16.3424 20.9255 15.8132 21.1447 15.2613 21.1447H2.77701C2.22517 21.1447 1.69593 20.9255 1.30572 20.5353C0.915507 20.1451 0.696289 19.6159 0.696289 19.064V2.41825C0.696289 1.8664 0.915507 1.33716 1.30572 0.946953C1.69593 0.556743 2.22517 0.337524 2.77701 0.337524H15.2613ZM9.01917 11.7815H5.89809C5.62217 11.7815 5.35755 11.8911 5.16245 12.0862C4.96734 12.2813 4.85773 12.5459 4.85773 12.8218C4.85773 13.0978 4.96734 13.3624 5.16245 13.5575C5.35755 13.7526 5.62217 13.8622 5.89809 13.8622H9.01917C9.29509 13.8622 9.55971 13.7526 9.75482 13.5575C9.94992 13.3624 10.0595 13.0978 10.0595 12.8218C10.0595 12.5459 9.94992 12.2813 9.75482 12.0862C9.55971 11.8911 9.29509 11.7815 9.01917 11.7815ZM12.1403 6.57969H5.89809C5.63292 6.57998 5.37788 6.68152 5.18506 6.86355C4.99224 7.04558 4.87621 7.29437 4.86067 7.55908C4.84513 7.82379 4.93126 8.08444 5.10145 8.28778C5.27164 8.49113 5.51306 8.62181 5.77637 8.65313L5.89809 8.66041H12.1403C12.4054 8.66011 12.6605 8.55858 12.8533 8.37655C13.0461 8.19452 13.1621 7.94573 13.1777 7.68102C13.1932 7.41631 13.1071 7.15565 12.9369 6.95231C12.7667 6.74897 12.5253 6.61829 12.262 6.58697L12.1403 6.57969Z" fill="#25272D"/>
</svg>
