<svg width="22" height="18" viewBox="0 0 22 18" fill="none" xmlns="http://www.w3.org/2000/svg">
<path d="M3.06705 17.064C2.49485 17.064 2.00519 16.8604 1.59806 16.4533C1.19093 16.0462 0.987022 15.5562 0.986328 14.9833V2.49893C0.986328 1.92674 1.19024 1.43707 1.59806 1.02994C2.00588 0.622817 2.49554 0.418906 3.06705 0.418213H19.7128C20.285 0.418213 20.775 0.622123 21.1828 1.02994C21.5907 1.43777 21.7942 1.92743 21.7935 2.49893V14.9833C21.7935 15.5555 21.59 16.0455 21.1828 16.4533C20.7757 16.8611 20.2857 17.0647 19.7128 17.064H3.06705ZM5.14777 12.9025H13.4707V10.8218H5.14777V12.9025ZM15.5514 12.9025H17.6321V10.8218H15.5514V12.9025ZM5.14777 8.7411H7.22849V6.66038H5.14777V8.7411ZM9.30921 8.7411H17.6321V6.66038H9.30921V8.7411Z" fill="#ECEAF3"/>
</svg>
