<svg width="11" height="15" viewBox="0 0 11 15" fill="none" xmlns="http://www.w3.org/2000/svg">
<path d="M10.1354 0.909334C10.0276 0.852953 9.90649 0.827124 9.78511 0.834644C9.66372 0.842165 9.5467 0.882749 9.44672 0.952001L0.780055 6.952C0.691497 7.01335 0.619126 7.09526 0.569142 7.1907C0.519157 7.28613 0.493047 7.39226 0.493047 7.5C0.493047 7.60774 0.519157 7.71387 0.569142 7.8093C0.619126 7.90474 0.691496 7.98665 0.780055 8.048L9.44672 14.048C9.54674 14.1172 9.66378 14.1577 9.78518 14.1652C9.90658 14.1726 10.0277 14.1468 10.1354 14.0903C10.2432 14.0339 10.3334 13.949 10.3964 13.845C10.4594 13.7409 10.4927 13.6216 10.4927 13.5L10.4927 1.5C10.4927 1.37831 10.4595 1.25893 10.3965 1.15481C10.3335 1.05069 10.2432 0.965799 10.1354 0.909334Z" fill="#F74C7D"/>
</svg>
