<svg width="17" height="22" viewBox="0 0 17 22" fill="none" xmlns="http://www.w3.org/2000/svg">
<path d="M14.7003 0.943848C15.2521 0.943848 15.7814 1.16307 16.1716 1.55328C16.5618 1.94349 16.781 2.47273 16.781 3.02457V19.6703C16.781 20.2222 16.5618 20.7514 16.1716 21.1416C15.7814 21.5318 15.2521 21.7511 14.7003 21.7511H2.21597C1.66413 21.7511 1.13489 21.5318 0.744683 21.1416C0.354472 20.7514 0.135254 20.2222 0.135254 19.6703V3.02457C0.135254 2.47273 0.354472 1.94349 0.744683 1.55328C1.13489 1.16307 1.66413 0.943848 2.21597 0.943848H14.7003ZM8.45814 12.3878H5.33706C5.06114 12.3878 4.79652 12.4974 4.60141 12.6925C4.40631 12.8876 4.2967 13.1523 4.2967 13.4282C4.2967 13.7041 4.40631 13.9687 4.60141 14.1638C4.79652 14.3589 5.06114 14.4685 5.33706 14.4685H8.45814C8.73406 14.4685 8.99868 14.3589 9.19378 14.1638C9.38889 13.9687 9.4985 13.7041 9.4985 13.4282C9.4985 13.1523 9.38889 12.8876 9.19378 12.6925C8.99868 12.4974 8.73406 12.3878 8.45814 12.3878ZM11.5792 7.18601H5.33706C5.07189 7.1863 4.81684 7.28784 4.62403 7.46987C4.43121 7.6519 4.31518 7.90069 4.29964 8.1654C4.2841 8.43011 4.37022 8.69077 4.54042 8.89411C4.71061 9.09745 4.95202 9.22813 5.21533 9.25945L5.33706 9.26673H11.5792C11.8444 9.26644 12.0994 9.1649 12.2922 8.98287C12.4851 8.80084 12.6011 8.55205 12.6166 8.28734C12.6322 8.02263 12.5461 7.76198 12.3759 7.55863C12.2057 7.35529 11.9643 7.22461 11.7009 7.19329L11.5792 7.18601Z" fill="black"/>
</svg>
