<svg width="18" height="24" viewBox="0 0 18 24" fill="none" xmlns="http://www.w3.org/2000/svg">
<path d="M15.2784 0.830566C15.8303 0.830566 16.3595 1.04978 16.7497 1.44C17.1399 1.83021 17.3591 2.35945 17.3591 2.91129V19.5571C17.3591 20.1089 17.1399 20.6381 16.7497 21.0283C16.3595 21.4186 15.8303 21.6378 15.2784 21.6378H2.7941C2.24226 21.6378 1.71302 21.4186 1.32281 21.0283C0.932597 20.6381 0.713379 20.1089 0.713379 19.5571V2.91129C0.713379 2.35945 0.932597 1.83021 1.32281 1.44C1.71302 1.04978 2.24226 0.830566 2.7941 0.830566H15.2784ZM9.03626 12.2745H5.91518C5.63926 12.2745 5.37464 12.3841 5.17954 12.5792C4.98443 12.7744 4.87482 13.039 4.87482 13.3149C4.87482 13.5908 4.98443 13.8554 5.17954 14.0505C5.37464 14.2456 5.63926 14.3553 5.91518 14.3553H9.03626C9.31218 14.3553 9.5768 14.2456 9.77191 14.0505C9.96701 13.8554 10.0766 13.5908 10.0766 13.3149C10.0766 13.039 9.96701 12.7744 9.77191 12.5792C9.5768 12.3841 9.31218 12.2745 9.03626 12.2745ZM12.1573 7.07273H5.91518C5.65001 7.07302 5.39497 7.17456 5.20215 7.35659C5.00933 7.53862 4.8933 7.78741 4.87776 8.05212C4.86222 8.31683 4.94835 8.57748 5.11854 8.78083C5.28873 8.98417 5.53015 9.11485 5.79346 9.14617L5.91518 9.15345H12.1573C12.4225 9.15316 12.6776 9.05162 12.8704 8.86959C13.0632 8.68756 13.1792 8.43877 13.1948 8.17406C13.2103 7.90935 13.1242 7.64869 12.954 7.44535C12.7838 7.24201 12.5424 7.11133 12.2791 7.08001L12.1573 7.07273Z" fill="#ECEAF3"/>
</svg>
