<svg width="22" height="17" viewBox="0 0 22 17" fill="none" xmlns="http://www.w3.org/2000/svg">
<path d="M2.63492 16.8229C2.06272 16.8229 1.57306 16.6193 1.16593 16.2122C0.758803 15.8051 0.554893 15.3151 0.554199 14.7422V2.25784C0.554199 1.68565 0.75811 1.19598 1.16593 0.788856C1.57375 0.381728 2.06342 0.177818 2.63492 0.177124H19.2807C19.8529 0.177124 20.3429 0.381034 20.7507 0.788856C21.1585 1.19668 21.3621 1.68634 21.3614 2.25784V14.7422C21.3614 15.3144 21.1578 15.8044 20.7507 16.2122C20.3436 16.62 19.8536 16.8236 19.2807 16.8229H2.63492ZM4.71564 12.6614H13.0385V10.5807H4.71564V12.6614ZM15.1192 12.6614H17.2V10.5807H15.1192V12.6614ZM4.71564 8.50001H6.79636V6.41929H4.71564V8.50001ZM8.87708 8.50001H17.2V6.41929H8.87708V8.50001Z" fill="#ECEAF3"/>
</svg>
