<svg width="21" height="18" viewBox="0 0 21 18" fill="none" xmlns="http://www.w3.org/2000/svg">
<path d="M2.08414 17.557C1.51194 17.557 1.02228 17.3535 0.61515 16.9463C0.208022 16.5392 0.00411154 16.0492 0.00341797 15.4763V2.99198C0.00341797 2.41978 0.207329 1.93011 0.61515 1.52299C1.02297 1.11586 1.51263 0.911948 2.08414 0.911255H18.7299C19.3021 0.911255 19.7921 1.11517 20.1999 1.52299C20.6078 1.93081 20.8113 2.42047 20.8106 2.99198V15.4763C20.8106 16.0485 20.6071 16.5385 20.1999 16.9463C19.7928 17.3542 19.3028 17.5577 18.7299 17.557H2.08414ZM4.16486 13.3956H12.4877V11.3149H4.16486V13.3956ZM14.5685 13.3956H16.6492V11.3149H14.5685V13.3956ZM4.16486 9.23414H6.24558V7.15342H4.16486V9.23414ZM8.3263 9.23414H16.6492V7.15342H8.3263V9.23414Z" fill="black"/>
</svg>
