<svg width="11" height="15" viewBox="0 0 11 15" fill="none" xmlns="http://www.w3.org/2000/svg">
<path d="M0.690707 13.9544C0.798469 14.0108 0.919602 14.0366 1.04099 14.0291C1.16238 14.0215 1.2794 13.981 1.37937 13.9117L10.046 7.91171C10.1346 7.85035 10.207 7.76845 10.257 7.67301C10.3069 7.57757 10.333 7.47144 10.333 7.36371C10.333 7.25597 10.3069 7.14984 10.257 7.0544C10.207 6.95897 10.1346 6.87706 10.046 6.81571L1.37937 0.815707C1.27936 0.746503 1.16231 0.705977 1.04092 0.69852C0.91952 0.691063 0.798396 0.716957 0.69066 0.7734C0.582925 0.829843 0.492683 0.914683 0.429705 1.01873C0.366728 1.12279 0.333415 1.24208 0.333374 1.36371V13.3637C0.333354 13.4854 0.366643 13.6048 0.429632 13.7089C0.492622 13.813 0.582909 13.8979 0.690707 13.9544Z" fill="#25272D"/>
</svg>
