<svg width="18" height="17" viewBox="0 0 18 17" fill="none" xmlns="http://www.w3.org/2000/svg">
<path d="M9.00002 0.166687C4.40502 0.166687 0.666687 3.90502 0.666687 8.50002C0.666687 13.095 4.40502 16.8334 9.00002 16.8334C13.595 16.8334 17.3334 13.095 17.3334 8.50002C17.3334 3.90502 13.595 0.166687 9.00002 0.166687ZM2.33335 8.50002C2.33335 7.75085 2.46335 7.03169 2.69252 6.35919L4.00002 7.66669L5.66669 9.33335V11L7.33335 12.6667L8.16669 13.5V15.1092C4.88419 14.6967 2.33335 11.8934 2.33335 8.50002ZM14.275 12.5609C13.7309 12.1225 12.9059 11.8334 12.3334 11.8334V11C12.3334 10.558 12.1578 10.1341 11.8452 9.82151C11.5326 9.50895 11.1087 9.33335 10.6667 9.33335H7.33335V6.83335C7.77538 6.83335 8.1993 6.65776 8.51186 6.3452C8.82443 6.03264 9.00002 5.60871 9.00002 5.16669V4.33335H9.83335C10.2754 4.33335 10.6993 4.15776 11.0119 3.8452C11.3244 3.53264 11.5 3.10871 11.5 2.66669V2.32419C13.94 3.31502 15.6667 5.70835 15.6667 8.50002C15.6663 9.97057 15.1767 11.3992 14.275 12.5609Z" fill="#25272D"/>
</svg>
